<svg xmlns="http://www.w3.org/2000/svg" xmlns:xlink="http://www.w3.org/1999/xlink" width="400" zoomAndPan="magnify" viewBox="0 0 300 149.999998" height="200" preserveAspectRatio="xMidYMid meet" version="1.0"><defs><clipPath id="id1"><path d="M 143 74 L 157 74 L 157 132.75 L 143 132.75 Z M 143 74 " clip-rule="nonzero"/></clipPath><clipPath id="id2"><path d="M 105 60 L 146 60 L 146 132.75 L 105 132.75 Z M 105 60 " clip-rule="nonzero"/></clipPath><clipPath id="id3"><path d="M 153 60 L 195 60 L 195 132.75 L 153 132.75 Z M 153 60 " clip-rule="nonzero"/></clipPath><clipPath id="id4"><path d="M 143 74 L 157 74 L 157 132.75 L 143 132.75 Z M 143 74 " clip-rule="nonzero"/></clipPath><clipPath id="id5"><path d="M 102.042969 89 L 119 89 L 119 96 L 102.042969 96 Z M 102.042969 89 " clip-rule="nonzero"/></clipPath><clipPath id="id6"><path d="M 102.042969 93 L 118 93 L 118 100 L 102.042969 100 Z M 102.042969 93 " clip-rule="nonzero"/></clipPath></defs><path fill="#f5faff" d="M 177.105469 50.113281 C 177.105469 65.691406 168.125 82.53125 150.539062 82.53125 C 133.113281 82.53125 123.878906 65.691406 123.878906 50.113281 C 123.878906 34.535156 134.984375 21.90625 150.539062 21.90625 C 166.097656 21.90625 177.105469 34.535156 177.105469 50.113281 Z M 177.105469 50.113281 " fill-opacity="1" fill-rule="nonzero"/><path fill="#384e6b" d="M 150.539062 83.625 C 132.511719 83.625 122.78125 66.359375 122.78125 50.113281 C 122.78125 42.199219 125.546875 34.851562 130.570312 29.421875 C 135.707031 23.867188 142.800781 20.808594 150.539062 20.808594 C 166.308594 20.808594 178.199219 33.40625 178.199219 50.113281 C 178.199219 58.460938 175.6875 66.730469 171.304688 72.804688 C 166.195312 79.882812 159.015625 83.625 150.539062 83.625 Z M 150.539062 23.003906 C 135.964844 23.003906 124.972656 34.65625 124.972656 50.113281 C 124.972656 65.296875 133.933594 81.433594 150.539062 81.433594 C 167.261719 81.433594 176.007812 65.675781 176.007812 50.113281 C 176.007812 34.65625 165.058594 23.003906 150.539062 23.003906 Z M 150.539062 23.003906 " fill-opacity="1" fill-rule="nonzero"/><path fill="#f5faff" d="M 176.636719 44.644531 C 160.125 50.554688 143.421875 34.648438 143.421875 34.648438 C 142.929688 47.113281 128.953125 47.964844 128.953125 47.964844 L 129.203125 56.488281 L 125.390625 61.058594 C 125.390625 61.058594 116.890625 36.125 139.488281 24.269531 C 139.488281 24.269531 158.761719 15.003906 172.007812 33.125 C 175.183594 37.464844 176.636719 44.644531 176.636719 44.644531 Z M 176.636719 44.644531 " fill-opacity="1" fill-rule="nonzero"/><path fill="#384e6b" d="M 125.390625 62.15625 C 125.324219 62.15625 125.257812 62.148438 125.191406 62.136719 C 124.804688 62.066406 124.484375 61.789062 124.355469 61.414062 C 124.265625 61.148438 122.164062 54.867188 122.875 47.011719 C 123.535156 39.699219 126.867188 29.652344 138.980469 23.296875 C 139.222656 23.179688 144.246094 20.804688 151 20.804688 C 157.09375 20.804688 165.839844 22.828125 172.894531 32.476562 C 176.171875 36.960938 177.648438 44.125 177.710938 44.425781 C 177.820312 44.960938 177.519531 45.492188 177.007812 45.675781 C 174.445312 46.59375 171.726562 47.058594 168.925781 47.058594 C 157.835938 47.058594 148.050781 39.972656 144.289062 36.863281 C 142.664062 46.222656 133.269531 48.445312 130.078125 48.933594 L 130.296875 56.457031 C 130.308594 56.726562 130.214844 56.988281 130.042969 57.191406 L 126.234375 61.761719 C 126.023438 62.011719 125.714844 62.15625 125.390625 62.15625 Z M 151 22.996094 C 144.738281 22.996094 140.007812 25.238281 139.960938 25.257812 C 131 29.960938 125.976562 37.328125 125.0625 47.132812 C 124.609375 52.027344 125.339844 56.351562 125.898438 58.742188 L 128.097656 56.105469 L 127.859375 47.996094 C 127.84375 47.40625 128.296875 46.90625 128.886719 46.871094 C 129.417969 46.835938 141.878906 45.914062 142.324219 34.605469 C 142.34375 34.175781 142.609375 33.796875 143.007812 33.632812 C 143.40625 33.46875 143.863281 33.558594 144.175781 33.855469 C 144.289062 33.964844 155.910156 44.863281 168.925781 44.863281 C 171.140625 44.863281 173.296875 44.546875 175.34375 43.917969 C 174.839844 41.871094 173.457031 36.960938 171.125 33.773438 C 165.898438 26.621094 159.128906 22.996094 151 22.996094 Z M 151 22.996094 " fill-opacity="1" fill-rule="nonzero"/><path fill="#f5faff" d="M 115.003906 71.039062 L 115.003906 52.214844 C 115.003906 52.214844 141.332031 55.910156 150.015625 75.261719 L 150.015625 78.441406 L 115.003906 78.441406 Z M 115.003906 71.039062 " fill-opacity="1" fill-rule="nonzero"/><path fill="#384e6b" d="M 150.015625 79.539062 L 115.003906 79.539062 C 114.398438 79.539062 113.910156 79.046875 113.910156 78.441406 L 113.910156 52.214844 C 113.910156 51.898438 114.046875 51.597656 114.285156 51.386719 C 114.523438 51.179688 114.84375 51.085938 115.15625 51.128906 C 116.257812 51.285156 142.1875 55.132812 151.015625 74.8125 C 151.078125 74.953125 151.113281 75.109375 151.113281 75.261719 L 151.113281 78.441406 C 151.113281 79.046875 150.621094 79.539062 150.015625 79.539062 Z M 116.101562 77.34375 L 148.921875 77.34375 L 148.921875 75.5 C 141.566406 59.457031 121.332031 54.542969 116.101562 53.519531 Z M 116.101562 77.34375 " fill-opacity="1" fill-rule="nonzero"/><path fill="#f5faff" d="M 185.03125 71.039062 L 185.03125 52.214844 C 185.03125 52.214844 158.703125 55.910156 150.019531 75.261719 L 150.019531 78.441406 L 185.03125 78.441406 Z M 185.03125 71.039062 " fill-opacity="1" fill-rule="nonzero"/><path fill="#384e6b" d="M 185.03125 79.539062 L 150.019531 79.539062 C 149.414062 79.539062 148.921875 79.046875 148.921875 78.441406 L 148.921875 75.261719 C 148.921875 75.109375 148.957031 74.957031 149.019531 74.8125 C 157.847656 55.132812 183.777344 51.285156 184.878906 51.128906 C 185.195312 51.085938 185.511719 51.179688 185.75 51.386719 C 185.988281 51.597656 186.125 51.898438 186.125 52.214844 L 186.125 78.441406 C 186.125 79.046875 185.636719 79.539062 185.03125 79.539062 Z M 151.113281 77.34375 L 183.933594 77.34375 L 183.933594 53.523438 C 178.699219 54.546875 158.460938 59.476562 151.113281 75.5 Z M 151.113281 77.34375 " fill-opacity="1" fill-rule="nonzero"/><path fill="#f5faff" d="M 111.441406 74.925781 L 111.441406 56.101562 C 111.441406 56.101562 140.390625 59.113281 149.9375 78.464844 L 149.9375 82.328125 L 111.441406 82.328125 Z M 111.441406 74.925781 " fill-opacity="1" fill-rule="nonzero"/><path fill="#384e6b" d="M 149.9375 83.421875 L 111.441406 83.421875 C 110.835938 83.421875 110.34375 82.933594 110.34375 82.328125 L 110.34375 56.101562 C 110.34375 55.789062 110.476562 55.496094 110.707031 55.289062 C 110.9375 55.078125 111.246094 54.980469 111.554688 55.011719 C 112.761719 55.136719 141.214844 58.308594 150.921875 77.980469 C 150.996094 78.132812 151.035156 78.296875 151.035156 78.464844 L 151.035156 82.328125 C 151.035156 82.933594 150.542969 83.421875 149.9375 83.421875 Z M 112.535156 81.230469 L 148.84375 81.230469 L 148.84375 78.722656 C 140.671875 62.546875 118.027344 58.1875 112.535156 57.355469 Z M 112.535156 81.230469 " fill-opacity="1" fill-rule="nonzero"/><path fill="#f5faff" d="M 188.4375 74.925781 L 188.4375 56.101562 C 188.4375 56.101562 159.488281 59.113281 149.9375 78.464844 L 149.9375 82.328125 L 188.4375 82.328125 Z M 188.4375 74.925781 " fill-opacity="1" fill-rule="nonzero"/><path fill="#384e6b" d="M 188.4375 83.421875 L 149.9375 83.421875 C 149.332031 83.421875 148.84375 82.933594 148.84375 82.328125 L 148.84375 78.464844 C 148.84375 78.296875 148.882812 78.132812 148.957031 77.980469 C 158.660156 58.308594 187.117188 55.136719 188.324219 55.011719 C 188.632812 54.980469 188.9375 55.078125 189.167969 55.289062 C 189.398438 55.496094 189.53125 55.789062 189.53125 56.101562 L 189.53125 82.328125 C 189.53125 82.933594 189.039062 83.421875 188.4375 83.421875 Z M 151.035156 81.230469 L 187.339844 81.230469 L 187.339844 57.355469 C 181.851562 58.1875 159.207031 62.546875 151.035156 78.722656 Z M 151.035156 81.230469 " fill-opacity="1" fill-rule="nonzero"/><path fill="#f5faff" d="M 144.839844 75.261719 L 155.039062 75.261719 L 155.039062 131.640625 L 144.839844 131.640625 Z M 144.839844 75.261719 " fill-opacity="1" fill-rule="nonzero"/><g clip-path="url(#id1)"><path fill="#384e6b" d="M 155.039062 132.738281 L 144.839844 132.738281 C 144.234375 132.738281 143.742188 132.246094 143.742188 131.640625 L 143.742188 75.261719 C 143.742188 74.65625 144.234375 74.167969 144.839844 74.167969 L 155.039062 74.167969 C 155.644531 74.167969 156.132812 74.65625 156.132812 75.261719 L 156.132812 131.640625 C 156.132812 132.246094 155.644531 132.738281 155.039062 132.738281 Z M 145.933594 130.542969 L 153.941406 130.542969 L 153.941406 76.359375 L 145.933594 76.359375 Z M 145.933594 130.542969 " fill-opacity="1" fill-rule="nonzero"/></g><path fill="#f5faff" d="M 106.324219 61.730469 L 144.839844 75.261719 L 144.839844 131.640625 L 106.324219 116.117188 Z M 106.324219 61.730469 " fill-opacity="1" fill-rule="nonzero"/><g clip-path="url(#id2)"><path fill="#384e6b" d="M 144.839844 132.738281 C 144.699219 132.738281 144.5625 132.710938 144.429688 132.65625 L 105.914062 117.132812 C 105.5 116.964844 105.226562 116.5625 105.226562 116.117188 L 105.226562 61.730469 C 105.226562 61.375 105.402344 61.042969 105.691406 60.835938 C 105.980469 60.628906 106.351562 60.578125 106.6875 60.695312 L 145.199219 74.226562 C 145.640625 74.382812 145.933594 74.796875 145.933594 75.261719 L 145.933594 131.640625 C 145.933594 132.003906 145.753906 132.34375 145.449219 132.546875 C 145.269531 132.671875 145.054688 132.738281 144.839844 132.738281 Z M 107.417969 115.375 L 143.742188 130.015625 L 143.742188 76.039062 L 107.417969 63.277344 Z M 107.417969 115.375 " fill-opacity="1" fill-rule="nonzero"/></g><path fill="#f5faff" d="M 193.550781 68.125 L 193.550781 61.730469 L 155.039062 75.261719 L 155.039062 131.640625 L 193.550781 116.117188 L 193.550781 75.261719 " fill-opacity="1" fill-rule="nonzero"/><g clip-path="url(#id3)"><path fill="#384e6b" d="M 155.039062 132.738281 C 154.824219 132.738281 154.609375 132.671875 154.425781 132.546875 C 154.125 132.34375 153.941406 132.003906 153.941406 131.640625 L 153.941406 75.261719 C 153.941406 74.796875 154.234375 74.382812 154.675781 74.226562 L 193.191406 60.695312 C 193.523438 60.578125 193.894531 60.628906 194.1875 60.835938 C 194.476562 61.042969 194.648438 61.375 194.648438 61.730469 L 194.648438 68.125 C 194.648438 68.730469 194.15625 69.222656 193.550781 69.222656 C 192.945312 69.222656 192.457031 68.730469 192.457031 68.125 L 192.457031 63.277344 L 156.132812 76.039062 L 156.132812 130.015625 L 192.457031 115.375 L 192.457031 75.261719 C 192.457031 74.65625 192.945312 74.164062 193.550781 74.164062 C 194.15625 74.164062 194.648438 74.65625 194.648438 75.261719 L 194.648438 116.117188 C 194.648438 116.5625 194.375 116.964844 193.960938 117.132812 L 155.445312 132.65625 C 155.316406 132.710938 155.175781 132.738281 155.039062 132.738281 Z M 155.039062 132.738281 " fill-opacity="1" fill-rule="nonzero"/></g><path fill="#f5faff" d="M 144.839844 75.261719 L 155.039062 75.261719 L 155.039062 131.640625 L 144.839844 131.640625 Z M 144.839844 75.261719 " fill-opacity="1" fill-rule="nonzero"/><g clip-path="url(#id4)"><path fill="#384e6b" d="M 155.039062 132.738281 L 144.839844 132.738281 C 144.234375 132.738281 143.742188 132.246094 143.742188 131.640625 L 143.742188 75.261719 C 143.742188 74.65625 144.234375 74.167969 144.839844 74.167969 L 155.039062 74.167969 C 155.644531 74.167969 156.132812 74.65625 156.132812 75.261719 L 156.132812 131.640625 C 156.132812 132.246094 155.644531 132.738281 155.039062 132.738281 Z M 145.933594 130.542969 L 153.941406 130.542969 L 153.941406 76.359375 L 145.933594 76.359375 Z M 145.933594 130.542969 " fill-opacity="1" fill-rule="nonzero"/></g><path fill="#f5faff" d="M 195.515625 88.273438 C 195.515625 89.40625 194.601562 90.324219 193.46875 90.324219 L 184.300781 90.324219 C 183.167969 90.324219 182.253906 89.40625 182.253906 88.273438 C 182.253906 87.140625 183.167969 86.222656 184.300781 86.222656 L 193.46875 86.222656 C 194.601562 86.222656 195.515625 87.140625 195.515625 88.273438 Z M 195.515625 88.273438 " fill-opacity="1" fill-rule="nonzero"/><path fill="#384e6b" d="M 193.46875 91.417969 L 184.300781 91.417969 C 182.566406 91.417969 181.15625 90.007812 181.15625 88.273438 C 181.15625 86.539062 182.566406 85.125 184.300781 85.125 L 193.46875 85.125 C 195.203125 85.125 196.613281 86.539062 196.613281 88.273438 C 196.613281 90.007812 195.203125 91.417969 193.46875 91.417969 Z M 184.300781 87.320312 C 183.773438 87.320312 183.347656 87.746094 183.347656 88.273438 C 183.347656 88.796875 183.773438 89.226562 184.300781 89.226562 L 193.46875 89.226562 C 193.996094 89.226562 194.421875 88.796875 194.421875 88.273438 C 194.421875 87.746094 193.996094 87.320312 193.46875 87.320312 Z M 184.300781 87.320312 " fill-opacity="1" fill-rule="nonzero"/><path fill="#f5faff" d="M 196.304688 92.371094 C 196.304688 93.503906 195.390625 94.421875 194.257812 94.421875 L 185.085938 94.421875 C 183.957031 94.421875 183.039062 93.503906 183.039062 92.371094 C 183.039062 91.242188 183.957031 90.324219 185.085938 90.324219 L 194.257812 90.324219 C 195.390625 90.324219 196.304688 91.242188 196.304688 92.371094 Z M 196.304688 92.371094 " fill-opacity="1" fill-rule="nonzero"/><path fill="#384e6b" d="M 194.257812 95.519531 L 185.085938 95.519531 C 183.355469 95.519531 181.945312 94.109375 181.945312 92.371094 C 181.945312 90.636719 183.355469 89.226562 185.085938 89.226562 L 194.257812 89.226562 C 195.992188 89.226562 197.402344 90.636719 197.402344 92.371094 C 197.402344 94.109375 195.992188 95.519531 194.257812 95.519531 Z M 185.085938 91.417969 C 184.5625 91.417969 184.136719 91.847656 184.136719 92.371094 C 184.136719 92.898438 184.5625 93.324219 185.085938 93.324219 L 194.257812 93.324219 C 194.78125 93.324219 195.210938 92.898438 195.210938 92.371094 C 195.210938 91.847656 194.78125 91.417969 194.257812 91.417969 Z M 185.085938 91.417969 " fill-opacity="1" fill-rule="nonzero"/><path fill="#f5faff" d="M 196.875 96.472656 C 196.875 97.605469 195.957031 98.523438 194.828125 98.523438 L 185.65625 98.523438 C 184.523438 98.523438 183.609375 97.605469 183.609375 96.472656 C 183.609375 95.339844 184.523438 94.421875 185.65625 94.421875 L 194.828125 94.421875 C 195.957031 94.421875 196.875 95.339844 196.875 96.472656 Z M 196.875 96.472656 " fill-opacity="1" fill-rule="nonzero"/><path fill="#384e6b" d="M 194.828125 99.617188 L 185.65625 99.617188 C 183.921875 99.617188 182.511719 98.207031 182.511719 96.472656 C 182.511719 94.738281 183.921875 93.324219 185.65625 93.324219 L 194.828125 93.324219 C 196.558594 93.324219 197.96875 94.738281 197.96875 96.472656 C 197.96875 98.207031 196.558594 99.617188 194.828125 99.617188 Z M 185.65625 95.519531 C 185.128906 95.519531 184.703125 95.945312 184.703125 96.472656 C 184.703125 96.996094 185.132812 97.425781 185.65625 97.425781 L 194.828125 97.425781 C 195.351562 97.425781 195.777344 96.996094 195.777344 96.472656 C 195.777344 95.945312 195.351562 95.519531 194.828125 95.519531 Z M 185.65625 95.519531 " fill-opacity="1" fill-rule="nonzero"/><path fill="#f5faff" d="M 104.566406 88.273438 C 104.566406 89.40625 105.484375 90.324219 106.613281 90.324219 L 115.785156 90.324219 C 116.917969 90.324219 117.832031 89.40625 117.832031 88.273438 C 117.832031 87.140625 116.914062 86.222656 115.785156 86.222656 L 106.613281 86.222656 C 105.484375 86.222656 104.566406 87.140625 104.566406 88.273438 Z M 104.566406 88.273438 " fill-opacity="1" fill-rule="nonzero"/><path fill="#384e6b" d="M 115.785156 91.417969 L 106.613281 91.417969 C 104.882812 91.417969 103.472656 90.007812 103.472656 88.273438 C 103.472656 86.539062 104.882812 85.125 106.613281 85.125 L 115.785156 85.125 C 117.519531 85.125 118.929688 86.539062 118.929688 88.273438 C 118.929688 90.007812 117.519531 91.417969 115.785156 91.417969 Z M 106.613281 87.320312 C 106.089844 87.320312 105.664062 87.746094 105.664062 88.273438 C 105.664062 88.796875 106.089844 89.226562 106.613281 89.226562 L 115.785156 89.226562 C 116.308594 89.226562 116.738281 88.796875 116.738281 88.273438 C 116.738281 87.746094 116.308594 87.320312 115.785156 87.320312 Z M 106.613281 87.320312 " fill-opacity="1" fill-rule="nonzero"/><path fill="#f5faff" d="M 103.78125 92.371094 C 103.78125 93.503906 104.695312 94.421875 105.828125 94.421875 L 114.996094 94.421875 C 116.128906 94.421875 117.042969 93.503906 117.042969 92.371094 C 117.042969 91.242188 116.128906 90.324219 114.996094 90.324219 L 105.828125 90.324219 C 104.695312 90.324219 103.78125 91.242188 103.78125 92.371094 Z M 103.78125 92.371094 " fill-opacity="1" fill-rule="nonzero"/><g clip-path="url(#id5)"><path fill="#384e6b" d="M 115 95.519531 L 105.828125 95.519531 C 104.09375 95.519531 102.683594 94.109375 102.683594 92.371094 C 102.683594 90.636719 104.09375 89.226562 105.828125 89.226562 L 115 89.226562 C 116.730469 89.226562 118.140625 90.636719 118.140625 92.371094 C 118.140625 94.109375 116.730469 95.519531 115 95.519531 Z M 105.828125 91.417969 C 105.300781 91.417969 104.875 91.847656 104.875 92.371094 C 104.875 92.898438 105.300781 93.324219 105.828125 93.324219 L 115 93.324219 C 115.523438 93.324219 115.949219 92.898438 115.949219 92.371094 C 115.949219 91.847656 115.523438 91.417969 115 91.417969 Z M 105.828125 91.417969 " fill-opacity="1" fill-rule="nonzero"/></g><path fill="#f5faff" d="M 103.210938 96.472656 C 103.210938 97.605469 104.128906 98.523438 105.257812 98.523438 L 114.429688 98.523438 C 115.558594 98.523438 116.476562 97.605469 116.476562 96.472656 C 116.476562 95.339844 115.558594 94.421875 114.429688 94.421875 L 105.257812 94.421875 C 104.128906 94.421875 103.210938 95.339844 103.210938 96.472656 Z M 103.210938 96.472656 " fill-opacity="1" fill-rule="nonzero"/><g clip-path="url(#id6)"><path fill="#384e6b" d="M 114.429688 99.617188 L 105.257812 99.617188 C 103.523438 99.617188 102.117188 98.207031 102.117188 96.472656 C 102.117188 94.738281 103.523438 93.324219 105.257812 93.324219 L 114.429688 93.324219 C 116.164062 93.324219 117.570312 94.738281 117.570312 96.472656 C 117.574219 98.207031 116.164062 99.617188 114.429688 99.617188 Z M 105.257812 95.519531 C 104.734375 95.519531 104.308594 95.945312 104.308594 96.472656 C 104.308594 96.996094 104.734375 97.425781 105.257812 97.425781 L 114.429688 97.425781 C 114.953125 97.425781 115.382812 96.996094 115.382812 96.472656 C 115.382812 95.945312 114.953125 95.519531 114.429688 95.519531 Z M 105.257812 95.519531 " fill-opacity="1" fill-rule="nonzero"/></g></svg>