<svg xmlns="http://www.w3.org/2000/svg" xmlns:xlink="http://www.w3.org/1999/xlink" width="400" zoomAndPan="magnify" viewBox="0 0 300 299.999988" height="400" preserveAspectRatio="xMidYMid meet" version="1.0"><defs><clipPath id="id1"><path d="M 137 150 L 163 150 L 163 267.1875 L 137 267.1875 Z M 137 150 " clip-rule="nonzero"/></clipPath><clipPath id="id2"><path d="M 60 123 L 142 123 L 142 267.1875 L 60 267.1875 Z M 60 123 " clip-rule="nonzero"/></clipPath><clipPath id="id3"><path d="M 157 123 L 240 123 L 240 267.1875 L 157 267.1875 Z M 157 123 " clip-rule="nonzero"/></clipPath><clipPath id="id4"><path d="M 137 150 L 163 150 L 163 267.1875 L 137 267.1875 Z M 137 150 " clip-rule="nonzero"/></clipPath><clipPath id="id5"><path d="M 54.027344 188 L 86 188 L 86 202 L 54.027344 202 Z M 54.027344 188 " clip-rule="nonzero"/></clipPath></defs><path fill="#f5faff" d="M 204.148438 102.4375 C 204.148438 133.496094 186.195312 167.070312 151.023438 167.070312 C 116.171875 167.070312 97.699219 133.496094 97.699219 102.4375 C 97.699219 71.382812 119.910156 46.207031 151.023438 46.207031 C 182.136719 46.207031 204.148438 71.382812 204.148438 102.4375 Z M 204.148438 102.4375 " fill-opacity="1" fill-rule="nonzero"/><path fill="#384e6b" d="M 151.023438 169.253906 C 114.964844 169.253906 95.507812 134.832031 95.507812 102.4375 C 95.507812 86.667969 101.039062 72.019531 111.085938 61.191406 C 121.359375 50.117188 135.542969 44.019531 151.023438 44.019531 C 182.558594 44.019531 206.339844 69.136719 206.339844 102.4375 C 206.339844 119.082031 201.3125 135.574219 192.550781 147.679688 C 182.332031 161.792969 167.972656 169.253906 151.023438 169.253906 Z M 151.023438 48.394531 C 121.871094 48.394531 99.890625 71.628906 99.890625 102.4375 C 99.890625 132.710938 117.808594 164.882812 151.023438 164.882812 C 184.460938 164.882812 201.957031 133.46875 201.957031 102.4375 C 201.957031 71.628906 180.0625 48.394531 151.023438 48.394531 Z M 151.023438 48.394531 " fill-opacity="1" fill-rule="nonzero"/><path fill="#f5faff" d="M 203.214844 91.539062 C 170.191406 103.324219 136.78125 71.613281 136.78125 71.613281 C 135.800781 96.457031 107.851562 98.160156 107.851562 98.160156 L 108.347656 115.15625 L 100.726562 124.261719 C 100.726562 124.261719 83.722656 74.554688 128.917969 50.921875 C 128.917969 50.921875 167.464844 32.445312 193.960938 68.570312 C 200.3125 77.230469 203.214844 91.539062 203.214844 91.539062 Z M 203.214844 91.539062 " fill-opacity="1" fill-rule="nonzero"/><path fill="#384e6b" d="M 100.726562 126.449219 C 100.59375 126.449219 100.460938 126.4375 100.328125 126.414062 C 99.550781 126.269531 98.910156 125.714844 98.65625 124.96875 C 98.476562 124.445312 94.269531 111.921875 95.691406 96.257812 C 97.019531 81.683594 103.683594 61.648438 127.902344 48.984375 C 128.390625 48.746094 138.433594 44.011719 151.945312 44.011719 C 164.132812 44.011719 181.625 48.046875 195.730469 67.277344 C 202.289062 76.222656 205.242188 90.5 205.363281 91.105469 C 205.578125 92.167969 204.980469 93.230469 203.953125 93.597656 C 198.835938 95.425781 193.398438 96.351562 187.792969 96.351562 C 165.617188 96.351562 146.042969 82.226562 138.519531 76.027344 C 135.273438 94.6875 116.480469 99.117188 110.101562 100.089844 L 110.542969 115.089844 C 110.558594 115.625 110.375 116.144531 110.03125 116.554688 L 102.410156 125.664062 C 101.988281 126.167969 101.371094 126.449219 100.726562 126.449219 Z M 151.941406 48.382812 C 139.417969 48.382812 129.960938 52.847656 129.867188 52.890625 C 111.941406 62.265625 101.894531 76.949219 100.070312 96.5 C 99.160156 106.257812 100.628906 114.878906 101.738281 119.644531 L 106.136719 114.390625 L 105.664062 98.222656 C 105.628906 97.042969 106.539062 96.050781 107.71875 95.976562 C 108.777344 95.910156 133.703125 94.070312 134.59375 71.527344 C 134.628906 70.667969 135.160156 69.910156 135.957031 69.585938 C 136.753906 69.261719 137.667969 69.4375 138.292969 70.027344 C 138.523438 70.246094 161.757812 91.976562 187.792969 91.976562 C 192.222656 91.976562 196.535156 91.34375 200.632812 90.089844 C 199.625 86.011719 196.855469 76.222656 192.195312 69.863281 C 181.738281 55.609375 168.199219 48.382812 151.941406 48.382812 Z M 151.941406 48.382812 " fill-opacity="1" fill-rule="nonzero"/><path fill="#f5faff" d="M 79.953125 144.164062 L 79.953125 106.632812 C 79.953125 106.632812 132.609375 113.996094 149.976562 152.582031 L 149.976562 158.917969 L 79.953125 158.917969 Z M 79.953125 144.164062 " fill-opacity="1" fill-rule="nonzero"/><path fill="#384e6b" d="M 149.976562 161.101562 L 79.953125 161.101562 C 78.742188 161.101562 77.761719 160.125 77.761719 158.917969 L 77.761719 106.632812 C 77.761719 106 78.039062 105.398438 78.515625 104.980469 C 78.996094 104.566406 79.628906 104.378906 80.257812 104.46875 C 82.457031 104.773438 134.316406 112.449219 151.976562 151.683594 C 152.101562 151.964844 152.167969 152.273438 152.167969 152.582031 L 152.167969 158.914062 C 152.167969 160.125 151.1875 161.101562 149.976562 161.101562 Z M 82.144531 156.730469 L 147.785156 156.730469 L 147.785156 153.054688 C 133.070312 121.070312 92.609375 111.269531 82.144531 109.238281 Z M 82.144531 156.730469 " fill-opacity="1" fill-rule="nonzero"/><path fill="#f5faff" d="M 220.003906 144.164062 L 220.003906 106.632812 C 220.003906 106.632812 167.347656 113.996094 149.976562 152.582031 L 149.976562 158.917969 L 220.003906 158.917969 Z M 220.003906 144.164062 " fill-opacity="1" fill-rule="nonzero"/><path fill="#384e6b" d="M 220.003906 161.101562 L 149.976562 161.101562 C 148.769531 161.101562 147.789062 160.125 147.789062 158.917969 L 147.789062 152.582031 C 147.789062 152.273438 147.851562 151.96875 147.980469 151.6875 C 165.640625 112.453125 217.5 104.773438 219.699219 104.46875 C 220.328125 104.378906 220.960938 104.570312 221.441406 104.984375 C 221.917969 105.398438 222.191406 106 222.191406 106.632812 L 222.191406 158.917969 C 222.191406 160.125 221.210938 161.101562 220.003906 161.101562 Z M 152.167969 156.730469 L 217.808594 156.730469 L 217.808594 109.238281 C 207.339844 111.28125 166.867188 121.105469 152.167969 153.054688 Z M 152.167969 156.730469 " fill-opacity="1" fill-rule="nonzero"/><path fill="#f5faff" d="M 72.824219 151.910156 L 72.824219 114.378906 C 72.824219 114.378906 130.722656 120.382812 149.820312 158.964844 L 149.820312 166.664062 L 72.824219 166.664062 Z M 72.824219 151.910156 " fill-opacity="1" fill-rule="nonzero"/><path fill="#384e6b" d="M 149.820312 168.847656 L 72.824219 168.847656 C 71.617188 168.847656 70.636719 167.871094 70.636719 166.664062 L 70.636719 114.378906 C 70.636719 113.761719 70.898438 113.171875 71.359375 112.757812 C 71.820312 112.339844 72.433594 112.144531 73.050781 112.207031 C 75.464844 112.457031 132.375 118.785156 151.78125 157.996094 C 151.929688 158.300781 152.007812 158.632812 152.007812 158.964844 L 152.007812 166.664062 C 152.007812 167.871094 151.027344 168.847656 149.820312 168.847656 Z M 75.015625 164.476562 L 147.628906 164.476562 L 147.628906 159.480469 C 131.285156 127.226562 85.996094 118.539062 75.015625 116.882812 Z M 75.015625 164.476562 " fill-opacity="1" fill-rule="nonzero"/><path fill="#f5faff" d="M 226.8125 151.910156 L 226.8125 114.378906 C 226.8125 114.378906 168.914062 120.382812 149.820312 158.964844 L 149.820312 166.664062 L 226.8125 166.664062 Z M 226.8125 151.910156 " fill-opacity="1" fill-rule="nonzero"/><path fill="#384e6b" d="M 226.8125 168.847656 L 149.820312 168.847656 C 148.609375 168.847656 147.628906 167.871094 147.628906 166.664062 L 147.628906 158.964844 C 147.628906 158.628906 147.707031 158.296875 147.855469 157.996094 C 167.261719 118.785156 224.171875 112.457031 226.585938 112.207031 C 227.203125 112.144531 227.816406 112.339844 228.277344 112.757812 C 228.738281 113.171875 229.003906 113.761719 229.003906 114.378906 L 229.003906 166.664062 C 229.003906 167.871094 228.023438 168.847656 226.8125 168.847656 Z M 152.007812 164.476562 L 224.621094 164.476562 L 224.621094 116.882812 C 213.640625 118.539062 168.355469 127.226562 152.007812 159.480469 Z M 152.007812 164.476562 " fill-opacity="1" fill-rule="nonzero"/><path fill="#f5faff" d="M 139.621094 152.582031 L 160.019531 152.582031 L 160.019531 264.976562 L 139.621094 264.976562 Z M 139.621094 152.582031 " fill-opacity="1" fill-rule="nonzero"/><g clip-path="url(#id1)"><path fill="#384e6b" d="M 160.019531 267.164062 L 139.621094 267.164062 C 138.410156 267.164062 137.429688 266.183594 137.429688 264.976562 L 137.429688 152.582031 C 137.429688 151.375 138.410156 150.394531 139.621094 150.394531 L 160.019531 150.394531 C 161.230469 150.394531 162.210938 151.375 162.210938 152.582031 L 162.210938 264.976562 C 162.210938 266.183594 161.230469 267.164062 160.019531 267.164062 Z M 141.808594 262.789062 L 157.828125 262.789062 L 157.828125 154.769531 L 141.808594 154.769531 Z M 141.808594 262.789062 " fill-opacity="1" fill-rule="nonzero"/></g><path fill="#f5faff" d="M 62.59375 125.601562 L 139.621094 152.582031 L 139.621094 264.976562 L 62.59375 234.027344 Z M 62.59375 125.601562 " fill-opacity="1" fill-rule="nonzero"/><g clip-path="url(#id2)"><path fill="#384e6b" d="M 139.621094 267.164062 C 139.34375 267.164062 139.066406 267.109375 138.800781 267.003906 L 61.773438 236.054688 C 60.945312 235.722656 60.402344 234.917969 60.402344 234.027344 L 60.402344 125.601562 C 60.402344 124.890625 60.746094 124.226562 61.324219 123.816406 C 61.902344 123.40625 62.644531 123.304688 63.316406 123.539062 L 140.34375 150.519531 C 141.222656 150.824219 141.808594 151.652344 141.808594 152.582031 L 141.808594 264.976562 C 141.808594 265.703125 141.445312 266.378906 140.84375 266.789062 C 140.476562 267.035156 140.050781 267.164062 139.621094 267.164062 Z M 64.78125 232.550781 L 137.429688 261.738281 L 137.429688 154.132812 L 64.78125 128.6875 Z M 64.78125 232.550781 " fill-opacity="1" fill-rule="nonzero"/></g><path fill="#f5faff" d="M 237.046875 138.351562 L 237.046875 125.601562 L 160.019531 152.582031 L 160.019531 264.976562 L 237.046875 234.027344 L 237.046875 152.582031 " fill-opacity="1" fill-rule="nonzero"/><g clip-path="url(#id3)"><path fill="#384e6b" d="M 160.019531 267.164062 C 159.585938 267.164062 159.160156 267.035156 158.792969 266.789062 C 158.191406 266.378906 157.828125 265.703125 157.828125 264.976562 L 157.828125 152.582031 C 157.828125 151.652344 158.414062 150.824219 159.292969 150.519531 L 236.320312 123.539062 C 236.992188 123.304688 237.734375 123.40625 238.3125 123.816406 C 238.890625 124.226562 239.234375 124.894531 239.234375 125.601562 L 239.234375 138.351562 C 239.234375 139.558594 238.253906 140.539062 237.046875 140.539062 C 235.835938 140.539062 234.855469 139.558594 234.855469 138.351562 L 234.855469 128.6875 L 162.207031 154.132812 L 162.207031 261.738281 L 234.855469 232.550781 L 234.855469 152.582031 C 234.855469 151.371094 235.835938 150.394531 237.046875 150.394531 C 238.253906 150.394531 239.234375 151.371094 239.234375 152.582031 L 239.234375 234.027344 C 239.234375 234.917969 238.691406 235.722656 237.863281 236.054688 L 160.835938 267.003906 C 160.570312 267.109375 160.292969 267.164062 160.019531 267.164062 Z M 160.019531 267.164062 " fill-opacity="1" fill-rule="nonzero"/></g><path fill="#f5faff" d="M 139.621094 152.582031 L 160.019531 152.582031 L 160.019531 264.976562 L 139.621094 264.976562 Z M 139.621094 152.582031 " fill-opacity="1" fill-rule="nonzero"/><g clip-path="url(#id4)"><path fill="#384e6b" d="M 160.019531 267.164062 L 139.621094 267.164062 C 138.410156 267.164062 137.429688 266.183594 137.429688 264.976562 L 137.429688 152.582031 C 137.429688 151.375 138.410156 150.394531 139.621094 150.394531 L 160.019531 150.394531 C 161.230469 150.394531 162.210938 151.375 162.210938 152.582031 L 162.210938 264.976562 C 162.210938 266.183594 161.230469 267.164062 160.019531 267.164062 Z M 141.808594 262.789062 L 157.828125 262.789062 L 157.828125 154.769531 L 141.808594 154.769531 Z M 141.808594 262.789062 " fill-opacity="1" fill-rule="nonzero"/></g><path fill="#f5faff" d="M 240.976562 178.519531 C 240.976562 180.777344 239.140625 182.605469 236.882812 182.605469 L 218.539062 182.605469 C 216.277344 182.605469 214.445312 180.773438 214.445312 178.519531 C 214.445312 176.261719 216.277344 174.433594 218.539062 174.433594 L 236.882812 174.433594 C 239.140625 174.433594 240.976562 176.261719 240.976562 178.519531 Z M 240.976562 178.519531 " fill-opacity="1" fill-rule="nonzero"/><path fill="#384e6b" d="M 236.882812 184.792969 L 218.539062 184.792969 C 215.074219 184.792969 212.253906 181.976562 212.253906 178.519531 C 212.253906 175.058594 215.074219 172.246094 218.539062 172.246094 L 236.882812 172.246094 C 240.347656 172.246094 243.164062 175.058594 243.164062 178.519531 C 243.164062 181.976562 240.347656 184.792969 236.882812 184.792969 Z M 218.539062 176.617188 C 217.488281 176.617188 216.636719 177.46875 216.636719 178.519531 C 216.636719 179.566406 217.488281 180.417969 218.539062 180.417969 L 236.882812 180.417969 C 237.929688 180.417969 238.785156 179.566406 238.785156 178.519531 C 238.785156 177.46875 237.929688 176.617188 236.882812 176.617188 Z M 218.539062 176.617188 " fill-opacity="1" fill-rule="nonzero"/><path fill="#f5faff" d="M 242.550781 186.691406 C 242.550781 188.949219 240.71875 190.777344 238.457031 190.777344 L 220.117188 190.777344 C 217.855469 190.777344 216.023438 188.949219 216.023438 186.691406 C 216.023438 184.433594 217.855469 182.605469 220.117188 182.605469 L 238.457031 182.605469 C 240.71875 182.605469 242.550781 184.433594 242.550781 186.691406 Z M 242.550781 186.691406 " fill-opacity="1" fill-rule="nonzero"/><path fill="#384e6b" d="M 238.457031 192.964844 L 220.113281 192.964844 C 216.648438 192.964844 213.828125 190.152344 213.828125 186.691406 C 213.828125 183.234375 216.648438 180.417969 220.113281 180.417969 L 238.457031 180.417969 C 241.921875 180.417969 244.742188 183.234375 244.742188 186.691406 C 244.742188 190.152344 241.921875 192.964844 238.457031 192.964844 Z M 220.113281 184.792969 C 219.0625 184.792969 218.210938 185.644531 218.210938 186.691406 C 218.210938 187.738281 219.066406 188.589844 220.113281 188.589844 L 238.457031 188.589844 C 239.507812 188.589844 240.359375 187.738281 240.359375 186.691406 C 240.359375 185.644531 239.503906 184.792969 238.457031 184.792969 Z M 220.113281 184.792969 " fill-opacity="1" fill-rule="nonzero"/><path fill="#f5faff" d="M 243.6875 194.863281 C 243.6875 197.121094 241.855469 198.953125 239.59375 198.953125 L 221.253906 198.953125 C 218.992188 198.953125 217.160156 197.121094 217.160156 194.863281 C 217.160156 192.609375 218.992188 190.777344 221.253906 190.777344 L 239.59375 190.777344 C 241.855469 190.777344 243.6875 192.609375 243.6875 194.863281 Z M 243.6875 194.863281 " fill-opacity="1" fill-rule="nonzero"/><path fill="#384e6b" d="M 239.59375 201.136719 L 221.25 201.136719 C 217.785156 201.136719 214.964844 198.324219 214.964844 194.863281 C 214.964844 191.40625 217.785156 188.589844 221.25 188.589844 L 239.59375 188.589844 C 243.058594 188.589844 245.878906 191.40625 245.878906 194.863281 C 245.878906 198.324219 243.058594 201.136719 239.59375 201.136719 Z M 221.25 192.964844 C 220.203125 192.964844 219.347656 193.816406 219.347656 194.863281 C 219.347656 195.910156 220.203125 196.765625 221.25 196.765625 L 239.59375 196.765625 C 240.644531 196.765625 241.496094 195.910156 241.496094 194.863281 C 241.496094 193.816406 240.644531 192.964844 239.59375 192.964844 Z M 221.25 192.964844 " fill-opacity="1" fill-rule="nonzero"/><path fill="#f5faff" d="M 59.078125 178.519531 C 59.078125 180.777344 60.914062 182.605469 63.171875 182.605469 L 81.515625 182.605469 C 83.777344 182.605469 85.609375 180.773438 85.609375 178.519531 C 85.609375 176.261719 83.777344 174.433594 81.515625 174.433594 L 63.171875 174.433594 C 60.914062 174.433594 59.078125 176.261719 59.078125 178.519531 Z M 59.078125 178.519531 " fill-opacity="1" fill-rule="nonzero"/><path fill="#384e6b" d="M 81.515625 184.792969 L 63.171875 184.792969 C 59.707031 184.792969 56.890625 181.976562 56.890625 178.519531 C 56.890625 175.058594 59.707031 172.246094 63.171875 172.246094 L 81.515625 172.246094 C 84.980469 172.246094 87.800781 175.058594 87.800781 178.519531 C 87.800781 181.976562 84.980469 184.792969 81.515625 184.792969 Z M 63.171875 176.617188 C 62.125 176.617188 61.269531 177.46875 61.269531 178.519531 C 61.269531 179.566406 62.125 180.417969 63.171875 180.417969 L 81.515625 180.417969 C 82.566406 180.417969 83.417969 179.566406 83.417969 178.519531 C 83.417969 177.46875 82.566406 176.617188 81.515625 176.617188 Z M 63.171875 176.617188 " fill-opacity="1" fill-rule="nonzero"/><path fill="#f5faff" d="M 57.503906 186.691406 C 57.503906 188.949219 59.335938 190.777344 61.597656 190.777344 L 79.941406 190.777344 C 82.203125 190.777344 84.035156 188.949219 84.035156 186.691406 C 84.035156 184.433594 82.199219 182.605469 79.941406 182.605469 L 61.597656 182.605469 C 59.335938 182.605469 57.503906 184.433594 57.503906 186.691406 Z M 57.503906 186.691406 " fill-opacity="1" fill-rule="nonzero"/><path fill="#384e6b" d="M 79.941406 192.964844 L 61.597656 192.964844 C 58.132812 192.964844 55.3125 190.152344 55.3125 186.691406 C 55.3125 183.234375 58.132812 180.417969 61.597656 180.417969 L 79.941406 180.417969 C 83.40625 180.417969 86.226562 183.234375 86.226562 186.691406 C 86.226562 190.152344 83.40625 192.964844 79.941406 192.964844 Z M 61.597656 184.792969 C 60.546875 184.792969 59.695312 185.644531 59.695312 186.691406 C 59.695312 187.738281 60.550781 188.589844 61.597656 188.589844 L 79.941406 188.589844 C 80.992188 188.589844 81.84375 187.738281 81.84375 186.691406 C 81.84375 185.644531 80.988281 184.792969 79.941406 184.792969 Z M 61.597656 184.792969 " fill-opacity="1" fill-rule="nonzero"/><path fill="#f5faff" d="M 56.367188 194.863281 C 56.367188 197.121094 58.199219 198.953125 60.460938 198.953125 L 78.800781 198.953125 C 81.0625 198.953125 82.894531 197.121094 82.894531 194.863281 C 82.894531 192.609375 81.0625 190.777344 78.800781 190.777344 L 60.460938 190.777344 C 58.199219 190.777344 56.367188 192.609375 56.367188 194.863281 Z M 56.367188 194.863281 " fill-opacity="1" fill-rule="nonzero"/><g clip-path="url(#id5)"><path fill="#384e6b" d="M 78.804688 201.136719 L 60.460938 201.136719 C 56.996094 201.136719 54.175781 198.324219 54.175781 194.863281 C 54.175781 191.40625 56.996094 188.589844 60.460938 188.589844 L 78.804688 188.589844 C 82.269531 188.589844 85.085938 191.40625 85.085938 194.863281 C 85.089844 198.324219 82.269531 201.136719 78.804688 201.136719 Z M 60.460938 192.964844 C 59.410156 192.964844 58.558594 193.816406 58.558594 194.863281 C 58.558594 195.910156 59.414062 196.765625 60.460938 196.765625 L 78.804688 196.765625 C 79.855469 196.765625 80.707031 195.910156 80.707031 194.863281 C 80.707031 193.816406 79.851562 192.964844 78.804688 192.964844 Z M 60.460938 192.964844 " fill-opacity="1" fill-rule="nonzero"/></g></svg>